<?xml version="1.0" encoding="UTF-8" standalone="no"?>
<!DOCTYPE svg PUBLIC "-//W3C//DTD SVG 20010904//EN"
              "http://www.w3.org/TR/2001/REC-SVG-20010904/DTD/svg10.dtd">

<svg xmlns="http://www.w3.org/2000/svg"
     width="1.22in" height="1.22in"
     viewBox="0 0 366 366">
  <path id="Auswahl"
        fill="black" stroke="black" stroke-width="1"
        d="M 128.00,43.53
           C 117.82,46.76 112.13,54.39 112.00,65.00
             112.00,65.00 112.00,121.00 112.00,121.00
             112.00,123.19 111.79,126.84 113.02,128.69
             115.07,131.76 121.93,131.76 123.98,128.69
             125.21,126.84 125.00,123.19 125.00,121.00
             125.00,121.00 125.00,73.00 125.00,73.00
             125.00,70.48 124.89,67.40 125.65,65.00
             129.36,53.22 144.34,56.00 154.00,56.00
             154.00,56.00 242.00,56.00 242.00,56.00
             247.83,56.01 253.41,55.97 257.35,61.11
             260.21,64.83 259.99,68.59 260.00,73.00
             260.00,73.00 260.00,111.00 260.00,111.00
             260.00,111.00 260.00,292.00 260.00,292.00
             260.00,294.81 260.13,298.36 259.11,301.00
             255.03,311.56 240.15,309.00 231.00,309.00
             231.00,309.00 142.00,309.00 142.00,309.00
             135.88,308.99 130.53,308.77 126.85,302.96
             124.25,298.83 125.00,289.98 125.00,285.00
             125.00,285.00 125.00,245.00 125.00,245.00
             124.99,240.54 125.62,235.95 119.98,235.15
             113.54,234.23 112.11,237.36 112.00,243.00
             112.00,243.00 112.00,298.00 112.00,298.00
             112.02,313.79 120.19,321.98 136.00,322.00
             136.00,322.00 248.00,322.00 248.00,322.00
             264.04,321.97 272.97,314.43 273.00,298.00
             273.00,298.00 273.00,167.00 273.00,167.00
             273.00,167.00 273.00,67.00 273.00,67.00
             272.98,50.99 263.67,43.02 248.00,43.00
             248.00,43.00 169.00,43.00 169.00,43.00
             169.00,43.00 128.00,43.53 128.00,43.53 Z
           M 138.00,153.00
           C 138.00,153.00 72.00,153.00 72.00,153.00
             69.46,153.01 65.52,152.68 63.60,154.60
             61.68,156.52 62.01,160.46 62.00,163.00
             62.00,163.00 62.00,196.00 62.00,196.00
             62.00,198.19 61.79,201.84 63.02,203.69
             65.35,207.17 76.93,206.00 81.00,206.00
             81.00,206.00 138.00,206.00 138.00,206.00
             138.00,209.94 137.02,222.88 139.60,225.40
             143.27,228.99 150.57,223.67 154.00,221.72
             154.00,221.72 193.00,199.28 193.00,199.28
             193.00,199.28 214.00,187.28 214.00,187.28
             216.52,185.83 220.42,183.88 221.34,180.91
             222.30,177.83 220.21,175.87 217.94,174.24
             217.94,174.24 202.00,164.85 202.00,164.85
             202.00,164.85 155.00,138.00 155.00,138.00
             148.41,134.21 138.25,126.48 138.00,140.00
             138.00,140.00 138.00,153.00 138.00,153.00 Z" />
</svg>
