<?xml version="1.0" encoding="UTF-8" standalone="no"?>
<!DOCTYPE svg PUBLIC "-//W3C//DTD SVG 20010904//EN"
              "http://www.w3.org/TR/2001/REC-SVG-20010904/DTD/svg10.dtd">

<svg xmlns="http://www.w3.org/2000/svg"
     width="4.06667in" height="4.06667in"
     viewBox="0 0 366 366">
  <path id="Auswahl"
        fill="black" stroke="black" stroke-width="1"
        d="M 214.00,40.14
           C 227.94,42.75 234.83,50.84 235.00,65.00
             235.00,65.00 235.00,121.00 235.00,121.00
             234.99,124.01 235.27,127.30 233.40,129.87
             229.74,134.91 221.43,135.09 217.85,129.87
             215.91,127.03 216.02,123.30 216.00,120.00
             216.00,120.00 216.00,75.00 216.00,75.00
             215.98,61.65 211.89,59.02 199.00,59.00
             199.00,59.00 104.00,59.00 104.00,59.00
             98.78,59.01 94.16,58.74 90.43,63.13
             87.44,66.65 87.06,71.59 87.00,76.00
             87.00,76.00 87.00,112.00 87.00,112.00
             87.00,112.00 87.00,286.00 87.00,286.00
             87.01,292.15 86.97,300.12 93.09,303.55
             99.23,306.99 116.43,306.00 124.00,306.00
             124.00,306.00 193.00,306.00 193.00,306.00
             198.58,305.99 208.71,305.84 212.77,301.77
             217.08,297.47 216.00,290.63 216.00,285.00
             216.00,285.00 216.00,246.00 216.00,246.00
             216.01,242.59 215.76,238.10 217.85,235.19
             221.00,230.89 230.09,230.80 233.26,235.19
             235.28,237.90 234.99,241.75 235.00,245.00
             235.00,245.00 235.00,297.00 235.00,297.00
             234.97,314.84 227.28,323.97 209.00,324.00
             209.00,324.00 95.00,324.00 95.00,324.00
             91.09,323.99 88.85,324.11 85.00,322.96
             68.37,317.99 69.00,305.01 69.00,291.00
             69.00,291.00 69.00,264.00 69.00,264.00
             69.00,264.00 69.00,66.00 69.00,66.00
             69.03,47.37 79.21,40.03 97.00,40.14
             97.00,40.14 173.00,40.14 173.00,40.14
             173.00,40.14 214.00,40.14 214.00,40.14 Z
           M 234.00,208.00
           C 234.00,208.00 174.00,208.00 174.00,208.00
             169.97,207.98 163.57,207.90 160.73,204.57
             158.08,201.46 158.01,193.97 158.00,190.00
             158.00,190.00 158.00,168.00 158.00,168.00
             158.02,156.77 157.51,149.07 171.00,149.00
             171.00,149.00 234.00,149.00 234.00,149.00
             234.00,143.65 233.02,132.31 238.22,129.18
             243.55,125.97 251.43,131.12 256.00,133.72
             256.00,133.72 300.00,159.00 300.00,159.00
             306.22,162.58 323.37,170.27 323.56,178.00
             323.75,185.85 307.07,193.27 301.00,196.72
             301.00,196.72 256.00,222.42 256.00,222.42
             251.49,225.00 243.47,230.13 238.22,226.98
             232.96,223.82 234.00,213.35 234.00,208.00 Z" />
</svg>
